{"title":"Cross 2011 DVDrip English Klam","uid":6422364,"size":1576619958,"categoryP":"video","categoryS":"movies","magnet":"?xt=urn:btih:013b9e2668b376f422442edb4f73ae0dbdbcc2cd&amp;dn=Cross+2011+DVDrip+English+Klam&amp;tr=udp%3A%2F%2Ftracker.openbittorrent.com%3A80&amp;tr=udp%3A%2F%2Fopen.demonii.com%3A1337&amp;tr=udp%3A%2F%2Ftracker.coppersurfer.tk%3A6969&amp;tr=udp%3A%2F%2Fexodus.desync.com%3A6969","seeders":0,"leechers":1,"uploader":"Klambake","files":-1,"time":1306343191,"description":"With: Brian Austin Green, Vinnie Jones and Michael Clarke Duncan\n\nDe film speelt zich af in Los Angeles. Een maffiabaas heeft daar de touwtjes stevig in handen. Hij heeft een bijzondere gave: hij kan zichzelf in welk dier dan ook transformeren. Tot nu toe heeft hij van niemand wat te duchten. Maar dan verschijnt Callan (Brian Austin Green) ten tonele. Hij ontvangt zijn bovennatuurlijke kracht van een oud Keltisch Kruis. Een groep wapen-experts zijn hem behulpzaam in het volbrengen van zijn missie om de maffiabaas te stoppen.\n\nGiven incredible power by an ancient Celtic Cross. Callan continues to fight evil... Now, joined by a team of weapons experts, Callan battles an unstoppable empire in Los Angeles. \n\nGeneral:\n\nComplete name                    : Cross\\Cross.avi\nFormat                           : AVI\nFormat/Info                      : Audio Video Interleave\nFile size                        : 1.47 GiB\nDuration                         : 1h 44mn\nOverall bit rate                 : 2 006 Kbps\n\nVideo:\n\nFormat                           : MPEG-4 Visual\nFormat profile                   : Simple@L3\nFormat settings, BVOP            : No\nFormat settings, QPel            : No\nFormat settings, GMC             : No warppoints\nFormat settings, Matrix          : Default (H.263)\nCodec ID                         : XVID\nCodec ID/Hint                    : XviD\nDuration                         : 1h 44mn\nBit rate                         : 1 548 Kbps\nWidth                            : 704 pixels\nHeight                           : 396 pixels\nDisplay aspect ratio             : 16:9\nFrame rate                       : 23.976 fps\nColor space                      : YUV\nChroma subsampling               : 4:2:0\nBit depth                        : 8 bits\nScan type                        : Progressive\nBits/(Pixel*Frame)               : 0.232\nStream size                      : 1.13 GiB (77%)\nWriting library                  : XviD 1.1.2 (UTC 2006-11-01)\n\nAudio:\n\nFormat                           : AC-3\nFormat/Info                      : Audio Coding 3\nMode extension                   : CM (complete main)\nCodec ID                         : 2000\nDuration                         : 1h 44mn\nBit rate mode                    : Constant\nBit rate                         : 448 Kbps\nChannel(s)                       : 6 channels\nChannel positions                : Front: L C R, Side: L R, LFE\nSampling rate                    : 48.0 KHz\nBit depth                        : 16 bits\nStream size                      : 336 MiB (22%)\nAlignment                        : Aligned on interleaves\nInterleave, duration             : 32 ms (0.77 video frame)\nInterleave, preload duration     : 64 ms","torrent":{"xt":"urn:btih:013b9e2668b376f422442edb4f73ae0dbdbcc2cd","amp;dn":"Cross+2011+DVDrip+English+Klam","amp;tr":["udp%3A%2F%2Ftracker.openbittorrent.com%3A80","udp%3A%2F%2Fopen.demonii.com%3A1337","udp%3A%2F%2Ftracker.coppersurfer.tk%3A6969","udp%3A%2F%2Fexodus.desync.com%3A6969"],"infoHash":"013b9e2668b376f422442edb4f73ae0dbdbcc2cd","infoHashBuffer":{"type":"Buffer","data":[1,59,158,38,104,179,118,244,34,68,46,219,79,115,174,13,189,188,194,205]},"announce":[],"urlList":[]}}